# This file uses centimeters as units for non-parametric coordinates.

mtllib poster2.mtl
g default
v -8.751263 -3.337998 0.328252
v 7.456945 -3.337998 0.328252
v -8.751263 3.337998 0.328252
v 7.456945 3.337998 0.328252
v -8.751263 3.337998 -0.328252
v 7.456945 3.337998 -0.328252
v -8.751263 -3.337998 -0.328252
v 7.456945 -3.337998 -0.328252
v 3.144502 3.337998 0.328252
v 3.144502 3.337998 -0.328252
v 3.144502 -3.337998 -0.328252
v 3.144502 -3.337998 0.328252
v -5.055294 3.337998 0.328252
v -5.055294 3.337998 -0.328252
v -5.055294 -3.337998 -0.328252
v -5.055294 -3.337998 0.328252
v -1.065403 3.337998 0.328252
v -1.065403 3.337998 -0.328252
v -1.065403 -3.337998 -0.328252
v -1.065403 -3.337998 0.328252
v -8.751263 5.564933 0.328252
v -5.055294 5.564933 0.328252
v -5.055294 5.564933 -0.328252
v -8.751263 5.564933 -0.328252
v -5.055294 -4.429611 -0.328252
v -5.055294 -4.429611 0.328252
v -1.065403 -4.429611 -0.328252
v -1.065403 -4.429611 0.328252
v -1.065403 -6.186583 -0.328252
v -1.065403 -6.186583 0.328252
v 3.144502 -6.186583 -0.328252
v 3.144502 -6.186583 0.328252
v -1.065403 4.466292 0.328252
v 3.144502 4.466292 0.328252
v 3.144502 4.466292 -0.328252
v -1.065403 4.466292 -0.328252
v -3.648890 3.337998 0.328252
v -3.648890 3.337998 -0.328252
v -3.648890 5.564933 -0.328252
v -3.648890 5.564933 0.328252
v 4.983021 -3.337998 -0.328252
v 4.983021 -3.337998 0.328252
v 4.983021 -6.186583 0.328252
v 4.983021 -6.186583 -0.328252
v 3.144502 -3.822270 -0.328252
v 3.144502 -3.822270 0.328252
v 7.456945 -3.822270 -0.328252
v 7.456945 -3.822270 0.328252
vt 0.375000 0.000000
vt 0.625000 0.000000
vt 0.375000 0.250000
vt 0.625000 0.250000
vt 0.375000 0.500000
vt 0.625000 0.500000
vt 0.375000 0.750000
vt 0.625000 0.750000
vt 0.375000 1.000000
vt 0.625000 1.000000
vt 0.875000 0.000000
vt 0.875000 0.250000
vt 0.125000 0.000000
vt 0.125000 0.250000
vt 0.552711 0.250000
vt 0.552711 0.500000
vt 0.552711 0.750000
vt 0.552711 0.000000
vt 0.552711 1.000000
vt 0.415259 0.250000
vt 0.415259 0.500000
vt 0.415259 0.750000
vt 0.415259 0.000000
vt 0.415259 1.000000
vt 0.482141 0.250000
vt 0.482141 0.500000
vt 0.482141 0.750000
vt 0.482141 0.000000
vt 0.482141 1.000000
vt 0.375000 0.250000
vt 0.415259 0.250000
vt 0.415259 0.500000
vt 0.375000 0.500000
vt 0.415259 1.000000
vt 0.415259 0.750000
vt 0.482141 0.750000
vt 0.482141 1.000000
vt 0.482141 1.000000
vt 0.482141 0.750000
vt 0.552711 0.750000
vt 0.552711 1.000000
vt 0.482141 0.250000
vt 0.552711 0.250000
vt 0.552711 0.500000
vt 0.482141 0.500000
vt 0.415259 0.250000
vt 0.415259 0.500000
vt 0.415259 0.500000
vt 0.415259 0.250000
vt 0.552711 0.750000
vt 0.552711 1.000000
vt 0.552711 1.000000
vt 0.552711 0.750000
vt 0.552711 1.000000
vt 0.552711 0.750000
vt 0.625000 0.750000
vt 0.625000 1.000000
vn 0.000000 0.000000 1.000000
vn 0.000000 0.000000 1.000000
vn 0.000000 0.000000 1.000000
vn 0.000000 0.000000 1.000000
vn 0.000000 1.000000 0.000000
vn 0.000000 1.000000 0.000000
vn 0.000000 1.000000 0.000000
vn 0.000000 1.000000 0.000000
vn 0.000000 0.000000 -1.000000
vn 0.000000 0.000000 -1.000000
vn 0.000000 0.000000 -1.000000
vn 0.000000 0.000000 -1.000000
vn 0.000000 -1.000000 0.000000
vn 0.000000 -1.000000 0.000000
vn 0.000000 -1.000000 0.000000
vn 0.000000 -1.000000 0.000000
vn 1.000000 0.000000 0.000000
vn 1.000000 0.000000 0.000000
vn 1.000000 0.000000 0.000000
vn 1.000000 0.000000 0.000000
vn -1.000000 0.000000 0.000000
vn -1.000000 0.000000 0.000000
vn -1.000000 0.000000 0.000000
vn -1.000000 0.000000 0.000000
vn 0.000000 1.000000 0.000000
vn 0.000000 1.000000 0.000000
vn 0.000000 1.000000 0.000000
vn 0.000000 1.000000 0.000000
vn 0.000000 0.000000 -1.000000
vn 0.000000 0.000000 -1.000000
vn 0.000000 0.000000 -1.000000
vn 0.000000 0.000000 -1.000000
vn 0.000000 -1.000000 0.000000
vn 0.000000 -1.000000 0.000000
vn 0.000000 -1.000000 0.000000
vn 0.000000 -1.000000 0.000000
vn 0.000000 0.000000 1.000000
vn 0.000000 0.000000 1.000000
vn 0.000000 0.000000 1.000000
vn 0.000000 0.000000 1.000000
vn 0.000000 1.000000 0.000000
vn 0.000000 1.000000 0.000000
vn 0.000000 1.000000 0.000000
vn 0.000000 1.000000 0.000000
vn 0.000000 0.000000 -1.000000
vn 0.000000 0.000000 -1.000000
vn 0.000000 -1.000000 0.000000
vn 0.000000 -1.000000 0.000000
vn 0.000000 -1.000000 0.000000
vn 0.000000 -1.000000 0.000000
vn 0.000000 0.000000 1.000000
vn 0.000000 0.000000 1.000000
vn 0.000000 1.000000 0.000000
vn 0.000000 1.000000 0.000000
vn 0.000000 1.000000 0.000000
vn 0.000000 1.000000 0.000000
vn 0.000000 -1.000000 0.000000
vn 0.000000 -1.000000 0.000000
vn 0.000000 -1.000000 0.000000
vn 0.000000 -1.000000 0.000000
vn 0.000000 0.000000 1.000000
vn 0.000000 0.000000 1.000000
vn 1.000000 0.000000 0.000000
vn 1.000000 0.000000 0.000000
vn 1.000000 0.000000 0.000000
vn 1.000000 0.000000 0.000000
vn 0.000000 0.000000 -1.000000
vn 0.000000 0.000000 -1.000000
vn -1.000000 0.000000 0.000000
vn -1.000000 0.000000 0.000000
vn -1.000000 0.000000 0.000000
vn -1.000000 0.000000 0.000000
vn -1.000000 0.000000 0.000000
vn -1.000000 0.000000 0.000000
vn 0.000000 0.000000 -1.000000
vn 0.000000 0.000000 -1.000000
vn 1.000000 0.000000 0.000000
vn 1.000000 0.000000 0.000000
vn 1.000000 0.000000 0.000000
vn 1.000000 0.000000 0.000000
vn 0.000000 0.000000 1.000000
vn 0.000000 0.000000 1.000000
vn -1.000000 0.000000 0.000000
vn -1.000000 0.000000 0.000000
vn -1.000000 0.000000 0.000000
vn -1.000000 0.000000 0.000000
vn 0.000000 0.000000 -1.000000
vn 0.000000 0.000000 -1.000000
vn 1.000000 0.000000 0.000000
vn 1.000000 0.000000 0.000000
vn 1.000000 0.000000 0.000000
vn 1.000000 0.000000 0.000000
vn 0.000000 0.000000 1.000000
vn 0.000000 0.000000 1.000000
vn 0.000000 0.000000 1.000000
vn 0.000000 0.000000 1.000000
vn 1.000000 0.000000 0.000000
vn 1.000000 0.000000 0.000000
vn 1.000000 0.000000 0.000000
vn 1.000000 0.000000 0.000000
vn 0.000000 0.000000 -1.000000
vn 0.000000 0.000000 -1.000000
vn -1.000000 0.000000 0.000000
vn -1.000000 0.000000 0.000000
vn -1.000000 0.000000 0.000000
vn -1.000000 0.000000 0.000000
vn 0.000000 -1.000000 0.000000
vn 0.000000 -1.000000 0.000000
vn 0.000000 -1.000000 0.000000
vn 0.000000 -1.000000 0.000000
vn 0.000000 0.000000 -1.000000
vn 0.000000 0.000000 -1.000000
vn 0.000000 1.000000 0.000000
vn 0.000000 1.000000 0.000000
vn 0.000000 0.000000 1.000000
vn 0.000000 0.000000 1.000000
vn 0.000000 1.000000 0.000000
vn 0.000000 1.000000 0.000000
vn 0.000000 1.000000 0.000000
vn 0.000000 1.000000 0.000000
vn 0.000000 0.000000 1.000000
vn 0.000000 0.000000 1.000000
vn 0.000000 -1.000000 0.000000
vn 0.000000 -1.000000 0.000000
vn 0.000000 0.000000 -1.000000
vn 0.000000 0.000000 -1.000000
vn -1.000000 0.000000 0.000000
vn -1.000000 0.000000 0.000000
vn -1.000000 0.000000 0.000000
vn -1.000000 0.000000 0.000000
vn 0.000000 0.000000 -1.000000
vn 0.000000 0.000000 -1.000000
vn 1.000000 0.000000 0.000000
vn 1.000000 0.000000 0.000000
vn 0.000000 0.000000 1.000000
vn 0.000000 0.000000 1.000000
g PunkPoster1
usemtl blinn6SG
f 1/1/1 16/23/2 13/20/3 3/3/4
f 21/30/5 22/31/6 23/32/7 24/33/8
f 5/5/9 14/21/10 15/22/11 7/7/12
f 7/7/13 15/22/14 16/24/15 1/9/16
f 2/2/17 8/11/18 6/12/19 4/4/20
f 7/13/21 1/1/22 3/3/23 5/14/24
f 9/15/25 4/4/26 6/6/27 10/16/28
f 11/17/29 10/16/30 6/6/31 8/8/32
f 46/54/33 45/55/34 47/56/35 48/57/36
f 9/15/37 12/18/38 2/2/39 4/4/40
f 13/20/41 17/25/42 18/26/43 14/21/44
f 15/22/11 14/21/10 18/26/45 19/27/46
f 26/34/47 25/35/48 27/36/49 28/37/50
f 13/20/3 16/23/2 20/28/51 17/25/52
f 33/42/53 34/43/54 35/44/55 36/45/56
f 19/27/46 18/26/45 10/16/30 11/17/29
f 30/38/57 29/39/58 31/40/59 32/41/60
f 17/25/52 20/28/51 12/18/38 9/15/37
f 3/3/4 13/20/3 22/31/61 21/30/62
f 37/46/63 38/47/64 39/48/65 40/49/66
f 14/21/10 5/5/9 24/33/67 23/32/68
f 5/5/24 3/3/23 21/30/69 24/33/70
f 16/24/71 15/22/72 25/35/73 26/34/74
f 15/22/11 19/27/46 27/36/75 25/35/76
f 19/27/77 20/29/78 28/37/79 27/36/80
f 20/29/51 16/24/2 26/34/81 28/37/82
f 20/29/83 19/27/84 29/39/85 30/38/86
f 19/27/46 11/17/29 31/40/87 29/39/88
f 41/50/89 42/51/90 43/52/91 44/53/92
f 12/19/38 20/29/51 30/38/93 32/41/94
f 17/25/52 9/15/37 34/43/95 33/42/96
f 9/15/97 10/16/98 35/44/99 34/43/100
f 10/16/30 18/26/45 36/45/101 35/44/102
f 18/26/103 17/25/104 33/42/105 36/45/106
f 13/20/107 14/21/108 38/47/109 37/46/110
f 14/21/10 23/32/68 39/48/111 38/47/112
f 23/32/7 22/31/6 40/49/113 39/48/114
f 22/31/61 13/20/3 37/46/115 40/49/116
f 11/17/117 12/19/118 42/51/119 41/50/120
f 12/19/38 32/41/94 43/52/121 42/51/122
f 32/41/60 31/40/59 44/53/123 43/52/124
f 31/40/87 11/17/29 41/50/125 44/53/126
f 12/19/127 11/17/128 45/55/129 46/54/130
f 11/17/29 8/8/32 47/56/131 45/55/132
f 8/8/18 2/10/17 48/57/133 47/56/134
f 2/10/39 12/19/38 46/54/135 48/57/136
