# This file uses centimeters as units for non-parametric coordinates.

mtllib poster1.mtl
g default
v 27.672307 3.672707 1.796079
v 11.566612 2.820361 0.187951
v 28.139997 -2.875422 0.582743
v 12.034302 -3.727768 -1.025385
v 28.197611 -2.752297 -0.059533
v 12.091916 -3.604642 -1.667661
v 27.729921 3.795833 1.153804
v 11.624226 2.943487 -0.454325
v 16.319469 -3.500988 -0.597518
v 16.377083 -3.377863 -1.239794
v 15.909394 3.170266 -0.026457
v 15.851779 3.047141 0.615818
v 22.722511 -3.069783 0.216040
v 24.525018 -2.946658 -0.426235
v 24.057328 3.601472 0.787101
v 23.999714 3.478346 1.429376
v 20.502748 -3.279601 -0.179824
v 20.560362 -3.156475 -0.822100
v 20.092672 3.391654 0.391236
v 20.035058 3.268528 1.033512
v 28.296006 -5.059704 0.178006
v 22.878520 -5.254066 -0.188697
v 24.681027 -5.130940 -0.830972
v 28.353620 -4.936579 -0.464269
v 24.392935 4.672177 0.985498
v 24.335321 4.549052 1.627773
v 20.428279 4.462360 0.589633
v 20.370664 4.339234 1.231908
v 19.893113 6.185680 0.908956
v 19.835499 6.062554 1.551231
v 15.709835 4.858200 0.491262
v 15.652221 4.735074 1.133537
v 20.581791 -4.386284 -0.384887
v 16.398512 -4.607672 -0.802581
v 16.456127 -4.484546 -1.444857
v 20.639405 -4.263159 -1.027163
v 21.325003 -3.143742 0.076501
v 23.127510 -3.020617 -0.565774
v 23.283519 -5.204899 -0.970511
v 21.481012 -5.328025 -0.328236
v 14.082503 3.073584 -0.208869
v 14.024889 2.950458 0.433406
v 13.825330 4.638392 0.951125
v 13.882944 4.761517 0.308850
v 15.875468 3.645263 0.061557
v 15.817854 3.522138 0.703833
v 11.590300 3.418484 -0.366310
v 11.532686 3.295358 0.275965
vt 0.375000 0.000000
vt 0.625000 0.000000
vt 0.375000 0.250000
vt 0.625000 0.250000
vt 0.375000 0.500000
vt 0.625000 0.500000
vt 0.375000 0.750000
vt 0.625000 0.750000
vt 0.375000 1.000000
vt 0.625000 1.000000
vt 0.875000 0.000000
vt 0.875000 0.250000
vt 0.125000 0.000000
vt 0.125000 0.250000
vt 0.552711 0.250000
vt 0.552711 0.500000
vt 0.552711 0.750000
vt 0.552711 0.000000
vt 0.552711 1.000000
vt 0.415259 0.250000
vt 0.415259 0.500000
vt 0.415259 0.750000
vt 0.415259 0.000000
vt 0.415259 1.000000
vt 0.482141 0.250000
vt 0.482141 0.500000
vt 0.482141 0.750000
vt 0.482141 0.000000
vt 0.482141 1.000000
vt 0.375000 0.250000
vt 0.415259 0.250000
vt 0.415259 0.500000
vt 0.375000 0.500000
vt 0.415259 1.000000
vt 0.415259 0.750000
vt 0.482141 0.750000
vt 0.482141 1.000000
vt 0.482141 1.000000
vt 0.482141 0.750000
vt 0.552711 0.750000
vt 0.552711 1.000000
vt 0.482141 0.250000
vt 0.552711 0.250000
vt 0.552711 0.500000
vt 0.482141 0.500000
vt 0.415259 0.250000
vt 0.415259 0.500000
vt 0.415259 0.500000
vt 0.415259 0.250000
vt 0.552711 0.750000
vt 0.552711 1.000000
vt 0.552711 1.000000
vt 0.552711 0.750000
vt 0.552711 1.000000
vt 0.552711 0.750000
vt 0.625000 0.750000
vt 0.625000 1.000000
vn -0.071603 -0.177445 0.981522
vn -0.087361 -0.174448 0.980783
vn -0.083602 -0.178610 0.980362
vn -0.068075 -0.179986 0.981311
vn 0.051721 -0.991987 -0.115270
vn 0.053505 -0.995079 -0.083393
vn 0.052808 -0.993982 -0.095976
vn 0.051721 -0.991987 -0.115270
vn 0.087759 0.187547 -0.978327
vn 0.087759 0.187547 -0.978327
vn 0.087958 0.184759 -0.978840
vn 0.087759 0.187547 -0.978327
vn -0.070055 0.980847 0.181746
vn -0.070055 0.980847 0.181746
vn -0.070055 0.980847 0.181746
vn -0.070055 0.980847 0.181746
vn -0.993675 -0.052587 -0.099217
vn -0.993675 -0.052587 -0.099217
vn -0.993675 -0.052587 -0.099217
vn -0.993675 -0.052587 -0.099217
vn 0.993675 0.052587 0.099217
vn 0.993675 0.052587 0.099217
vn 0.993675 0.052587 0.099217
vn 0.993675 0.052587 0.099217
vn 0.070055 -0.980847 -0.181746
vn 0.070055 -0.980847 -0.181746
vn 0.070055 -0.980847 -0.181746
vn 0.070055 -0.980847 -0.181746
vn 0.082858 0.198456 -0.976601
vn 0.087759 0.187547 -0.978327
vn 0.087759 0.187547 -0.978327
vn 0.087759 0.187547 -0.978327
vn -0.070055 0.980847 0.181746
vn -0.070055 0.980847 0.181746
vn -0.070055 0.980847 0.181746
vn -0.070055 0.980847 0.181746
vn -0.087759 -0.187547 0.978327
vn -0.082858 -0.198456 0.976601
vn -0.087759 -0.187547 0.978327
vn -0.087759 -0.187547 0.978327
vn 0.077471 -0.993911 -0.078351
vn 0.077471 -0.993911 -0.078351
vn 0.077471 -0.993911 -0.078351
vn 0.077471 -0.993911 -0.078351
vn 0.087759 0.187547 -0.978327
vn 0.083146 0.191726 -0.977920
vn -0.070055 0.980847 0.181746
vn -0.070055 0.980847 0.181746
vn -0.070055 0.980847 0.181746
vn -0.070055 0.980847 0.181746
vn -0.091196 -0.187755 0.977973
vn -0.097395 -0.182568 0.978357
vn 0.070055 -0.980847 -0.181746
vn 0.070055 -0.980847 -0.181746
vn 0.070055 -0.980847 -0.181746
vn 0.070055 -0.980847 -0.181746
vn -0.312695 0.937661 0.151702
vn -0.312695 0.937661 0.151702
vn -0.260887 0.952164 0.159129
vn -0.205394 0.964420 0.166457
vn -0.065364 -0.186316 0.980313
vn -0.059712 -0.185990 0.980735
vn -0.340907 0.147684 -0.928424
vn -0.340907 0.147684 -0.928424
vn -0.340907 0.147684 -0.928424
vn -0.340907 0.147684 -0.928424
vn 0.087759 0.187547 -0.978327
vn 0.087759 0.187547 -0.978327
vn 0.993675 0.052587 0.099217
vn 0.993675 0.052587 0.099217
vn 0.952417 -0.303577 0.027239
vn 0.952417 -0.303577 0.027239
vn 0.952417 -0.303577 0.027239
vn 0.952417 -0.303577 0.027239
vn 0.090091 0.154081 -0.983942
vn 0.090091 0.154081 -0.983942
vn -0.952418 0.303577 -0.027239
vn -0.952418 0.303577 -0.027239
vn -0.952417 0.303577 -0.027239
vn -0.952418 0.303577 -0.027239
vn -0.090091 -0.154081 0.983942
vn -0.090091 -0.154081 0.983942
vn 0.993675 0.052587 0.099217
vn 0.993675 0.052587 0.099217
vn 0.993675 0.052587 0.099217
vn 0.993675 0.052587 0.099217
vn 0.061812 0.250622 -0.966110
vn 0.054571 0.229370 -0.971808
vn -0.990826 -0.084889 -0.105154
vn -0.990826 -0.084889 -0.105154
vn -0.990826 -0.084889 -0.105154
vn -0.990826 -0.084889 -0.105154
vn -0.054571 -0.229370 0.971808
vn -0.061812 -0.250622 0.966110
vn -0.087759 -0.187547 0.978327
vn -0.087759 -0.187547 0.978327
vn -0.993675 -0.052587 -0.099217
vn -0.993675 -0.052587 -0.099217
vn -0.993675 -0.052587 -0.099217
vn -0.993675 -0.052587 -0.099217
vn 0.087759 0.187547 -0.978327
vn 0.087759 0.187547 -0.978327
vn 0.993675 0.052587 0.099217
vn 0.993675 0.052587 0.099217
vn 0.993675 0.052587 0.099217
vn 0.993675 0.052587 0.099217
vn -0.056169 0.997854 0.033656
vn -0.056169 0.997854 0.033656
vn -0.056169 0.997854 0.033656
vn -0.056169 0.997854 0.033656
vn 0.087759 0.187547 -0.978327
vn 0.087759 0.187547 -0.978327
vn 0.056169 -0.997854 -0.033656
vn 0.056169 -0.997854 -0.033656
vn -0.087759 -0.187547 0.978327
vn -0.087759 -0.187547 0.978327
vn 0.070055 -0.980847 -0.181746
vn 0.070055 -0.980847 -0.181746
vn 0.070055 -0.980847 -0.181746
vn 0.070055 -0.980847 -0.181746
vn -0.078975 -0.300841 0.950399
vn -0.078975 -0.300841 0.950399
vn -0.070055 0.980847 0.181746
vn -0.070055 0.980847 0.181746
vn 0.078975 0.300841 -0.950399
vn 0.078975 0.300841 -0.950399
vn 0.993675 0.052587 0.099217
vn 0.993675 0.052587 0.099217
vn 0.993675 0.052587 0.099217
vn 0.993675 0.052587 0.099217
vn 0.087759 0.187547 -0.978327
vn 0.087759 0.187547 -0.978327
vn -0.993675 -0.052587 -0.099217
vn -0.993675 -0.052587 -0.099217
vn -0.087759 -0.187547 0.978327
vn -0.087759 -0.187547 0.978327
g PunkPoster
usemtl blinn2SG
f 1/1/1 16/23/2 13/20/3 3/3/4
f 21/30/5 22/31/6 23/32/7 24/33/8
f 5/5/9 14/21/10 15/22/11 7/7/12
f 7/7/13 15/22/14 16/24/15 1/9/16
f 2/2/17 8/11/18 6/12/19 4/4/20
f 7/13/21 1/1/22 3/3/23 5/14/24
f 9/15/25 4/4/26 6/6/27 10/16/28
f 11/17/29 10/16/30 6/6/31 8/8/32
f 46/54/33 45/55/34 47/56/35 48/57/36
f 9/15/37 12/18/38 2/2/39 4/4/40
f 13/20/41 17/25/42 18/26/43 14/21/44
f 15/22/11 14/21/10 18/26/45 19/27/46
f 26/34/47 25/35/48 27/36/49 28/37/50
f 13/20/3 16/23/2 20/28/51 17/25/52
f 33/42/53 34/43/54 35/44/55 36/45/56
f 19/27/46 18/26/45 10/16/30 11/17/29
f 30/38/57 29/39/58 31/40/59 32/41/60
f 17/25/52 20/28/51 12/18/38 9/15/37
f 3/3/4 13/20/3 22/31/61 21/30/62
f 37/46/63 38/47/64 39/48/65 40/49/66
f 14/21/10 5/5/9 24/33/67 23/32/68
f 5/5/24 3/3/23 21/30/69 24/33/70
f 16/24/71 15/22/72 25/35/73 26/34/74
f 15/22/11 19/27/46 27/36/75 25/35/76
f 19/27/77 20/29/78 28/37/79 27/36/80
f 20/29/51 16/24/2 26/34/81 28/37/82
f 20/29/83 19/27/84 29/39/85 30/38/86
f 19/27/46 11/17/29 31/40/87 29/39/88
f 41/50/89 42/51/90 43/52/91 44/53/92
f 12/19/38 20/29/51 30/38/93 32/41/94
f 17/25/52 9/15/37 34/43/95 33/42/96
f 9/15/97 10/16/98 35/44/99 34/43/100
f 10/16/30 18/26/45 36/45/101 35/44/102
f 18/26/103 17/25/104 33/42/105 36/45/106
f 13/20/107 14/21/108 38/47/109 37/46/110
f 14/21/10 23/32/68 39/48/111 38/47/112
f 23/32/7 22/31/6 40/49/113 39/48/114
f 22/31/61 13/20/3 37/46/115 40/49/116
f 11/17/117 12/19/118 42/51/119 41/50/120
f 12/19/38 32/41/94 43/52/121 42/51/122
f 32/41/60 31/40/59 44/53/123 43/52/124
f 31/40/87 11/17/29 41/50/125 44/53/126
f 12/19/127 11/17/128 45/55/129 46/54/130
f 11/17/29 8/8/32 47/56/131 45/55/132
f 8/8/18 2/10/17 48/57/133 47/56/134
f 2/10/39 12/19/38 46/54/135 48/57/136
